<svg width="76" height="73" viewBox="0 0 76 73" fill="none" xmlns="http://www.w3.org/2000/svg">
<path d="M38.0006 6.08325C29.6021 6.08325 21.5476 9.28786 15.6089 14.9921C9.67028 20.6963 6.33398 28.4329 6.33398 36.4999C6.33398 44.5669 9.67028 52.3035 15.6089 58.0077C21.5476 63.712 29.6021 66.9166 38.0006 66.9166C46.3992 66.9166 54.4537 63.712 60.3924 58.0077C66.331 52.3035 69.6673 44.5669 69.6673 36.4999C69.6673 28.4329 66.331 20.6963 60.3924 14.9921C54.4537 9.28786 46.3992 6.08325 38.0006 6.08325Z" fill="#1976D2"/>
<path d="M56.9002 27.4374C56.9731 27.2078 57.0079 26.9949 56.9984 26.8048C56.9747 26.2542 56.5804 25.8542 55.6526 25.8542H51.5074C50.4608 25.8542 49.9779 26.4626 49.6961 27.0724C49.6961 27.0724 47.1121 32.1809 44.1338 35.5496C43.168 36.5244 42.6772 36.5001 42.1547 36.5001C41.8744 36.5001 41.1667 36.1746 41.1667 35.2819V27.3964C41.1667 26.3409 40.8927 25.8542 40.0077 25.8542H32.6467C32.0023 25.8542 31.6667 26.3409 31.6667 26.8291C31.6667 27.8435 33.0885 28.0868 33.25 30.9293V36.4392C33.25 37.7776 33.0078 38.0209 32.4853 38.0209C31.0761 38.0209 28.3021 33.4584 26.4448 27.4785C26.0427 26.3014 25.6405 25.8542 24.5939 25.8542H20.4092C19.2011 25.8542 19 26.423 19 27.0314C19 28.1279 19.95 34.0561 25.1354 40.8725C28.8958 45.8152 33.8501 48.6667 38.2359 48.6667C40.8928 48.6667 41.1651 48.0174 41.1651 47.003V42.483C41.1667 41.2649 41.4564 41.0626 42.3019 41.0626C42.9052 41.0626 44.1354 41.4428 46.5104 44.1042C49.2496 47.1733 49.7467 48.6667 51.3174 48.6667H55.4626C56.4253 48.6667 56.9778 48.2789 57 47.5261C57.0047 47.3345 56.9762 47.1201 56.9113 46.8813C56.6042 46.0053 55.195 43.864 53.4375 41.823C52.4637 40.693 51.5027 39.5737 51.0609 38.9654C50.7648 38.5684 50.6524 38.2886 50.6667 38.0209C50.6809 37.7396 50.8329 37.4719 51.0609 37.0978C51.0198 37.0978 56.3778 29.8723 56.9002 27.4374Z" fill="white"/>
</svg>
