<svg width="76" height="73" viewBox="0 0 76 73" fill="none" xmlns="http://www.w3.org/2000/svg">
<path d="M7.70703 65.8567L11.9725 50.8993C9.34103 46.5224 7.9572 41.5553 7.95878 36.4681C7.9667 20.5526 21.4504 7.60425 38.0215 7.60425C46.0633 7.60729 53.6094 10.614 59.2857 16.0692C64.9604 21.526 68.0859 28.7773 68.0827 36.491C68.0764 52.4065 54.5895 65.3564 38.0215 65.3564H38.0089C32.9786 65.3549 28.0339 64.1427 23.6433 61.8417L7.70703 65.8567Z" fill="white"/>
<path d="M7.70699 66.6171C7.49799 66.6171 7.29532 66.538 7.14491 66.392C6.94699 66.1988 6.86941 65.9175 6.94382 65.6574L11.1222 51.0027C8.53191 46.5831 7.16549 41.5644 7.16866 36.4696C7.17499 20.1328 21.0149 6.84375 38.0215 6.84375C46.2707 6.84679 54.0211 9.93256 59.8462 15.5323C65.6712 21.1335 68.8775 28.5765 68.8743 36.4909C68.868 52.8261 55.0265 66.1167 38.0215 66.1167C32.9722 66.1152 27.9768 64.9183 23.5435 62.6538L7.90807 66.5912C7.84157 66.6095 7.77507 66.6171 7.70699 66.6171Z" fill="white"/>
<path d="M38.0215 7.60409C46.0633 7.60713 53.6095 10.6138 59.2857 16.069C64.9604 21.5258 68.0859 28.7771 68.0827 36.4908C68.0764 52.4063 54.5895 65.3562 38.0215 65.3562H38.0089C32.9786 65.3547 28.0339 64.1426 23.6433 61.8416L7.70703 65.8566L11.9725 50.8992C9.34103 46.5222 7.9572 41.5552 7.95878 36.468C7.9667 20.5525 21.4504 7.60409 38.0215 7.60409ZM38.0215 6.08325C20.5795 6.08325 6.38336 19.713 6.37545 36.468C6.37386 41.5886 7.7197 46.6348 10.272 51.1014L6.17912 65.4566C6.03028 65.9813 6.18228 66.5409 6.58128 66.9272C6.88212 67.2192 7.28903 67.3789 7.70703 67.3789C7.84161 67.3789 7.9762 67.3622 8.1092 67.3287L23.4469 63.4658C27.9246 65.6984 32.9438 66.877 38.0089 66.8786C55.4635 66.8786 69.6597 53.2473 69.6676 36.4923C69.6708 28.3726 66.3822 20.738 60.4083 14.9953C54.4312 9.25115 46.4813 6.08629 38.0215 6.08325Z" fill="#CFD8DC"/>
<path d="M55.6945 19.5154C50.9762 14.9802 44.7046 12.4815 38.0293 12.48C24.248 12.48 13.0395 23.2414 13.0332 36.4696C13.0316 41.0032 14.3521 45.4167 16.8538 49.2385L17.4491 50.1465L14.9237 58.9992L24.381 56.6176L25.2945 57.1377C29.1294 59.3247 33.5279 60.4805 38.0119 60.482H38.0214C51.7932 60.482 63.0016 49.7191 63.0064 36.4894C63.008 30.0791 60.4129 24.0505 55.6945 19.5154Z" fill="#40C351"/>
<path fill-rule="evenodd" clip-rule="evenodd" d="M30.5072 24.4018C29.9451 23.2003 29.353 23.176 28.8162 23.1547C28.3776 23.1365 27.8773 23.138 27.377 23.138C26.8766 23.138 26.0628 23.3189 25.3741 24.0413C24.6853 24.7637 22.7441 26.5081 22.7441 30.0578C22.7441 33.6074 25.4358 37.0384 25.8111 37.519C26.1863 37.9996 31.0076 45.517 38.6424 48.4097C44.9868 50.8126 46.2788 50.335 47.6563 50.2149C49.0338 50.0947 52.1007 48.4705 52.7261 46.7854C53.3516 45.1003 53.3516 43.6571 53.1647 43.3559C52.9763 43.0548 52.476 42.8753 51.7255 42.5134C50.975 42.1514 47.2811 40.407 46.5923 40.1667C45.9036 39.9264 45.4032 39.8063 44.9013 40.5287C44.401 41.2496 42.9617 42.8753 42.5231 43.3559C42.0846 43.838 41.646 43.8989 40.8955 43.5369C40.145 43.175 37.7256 42.4145 34.8551 39.9569C32.6226 38.0452 31.1152 35.6833 30.6766 34.9609C30.2381 34.2401 30.6291 33.8492 31.006 33.4888C31.3432 33.1648 31.7565 32.6462 32.1333 32.2249C32.5086 31.8037 32.6336 31.5026 32.8838 31.022C33.134 30.5399 33.0089 30.1186 32.8205 29.7582C32.6352 29.3962 31.1754 25.8283 30.5072 24.4018Z" fill="white"/>
</svg>
