<svg width="76" height="73" viewBox="0 0 76 73" fill="none" xmlns="http://www.w3.org/2000/svg">
<path d="M38.0006 6.08325C29.6021 6.08325 21.5476 9.28786 15.6089 14.9921C9.67028 20.6963 6.33398 28.4329 6.33398 36.4999C6.33398 44.5669 9.67028 52.3035 15.6089 58.0077C21.5476 63.712 29.6021 66.9166 38.0006 66.9166C46.3992 66.9166 54.4537 63.712 60.3924 58.0077C66.331 52.3035 69.6673 44.5669 69.6673 36.4999C69.6673 28.4329 66.331 20.6963 60.3924 14.9921C54.4537 9.28786 46.3992 6.08325 38.0006 6.08325Z" fill="#29B6F6"/>
<path d="M53.7548 22.8126L47.8237 51.9C47.8237 51.9 47.5687 53.2293 45.8524 53.2293C44.9404 53.2293 44.4702 52.8125 44.4702 52.8125L31.623 42.5728L25.3372 39.5296L17.2701 37.4689C17.2701 37.4689 15.834 37.0704 15.834 35.9298C15.834 34.9793 17.3112 34.526 17.3112 34.526L51.0616 21.6476C51.0616 21.6476 52.0923 21.2902 52.8444 21.2918C53.3067 21.2918 53.834 21.4819 53.834 22.0522C53.834 22.4324 53.7548 22.8126 53.7548 22.8126Z" fill="white"/>
<path d="M36.416 46.393L30.9915 51.5243C30.9915 51.5243 30.7556 51.6991 30.4405 51.7067C30.3312 51.7098 30.2141 51.6931 30.0938 51.6414L31.6201 42.5696L36.416 46.393Z" fill="#B0BEC5"/>
<path d="M47.3376 27.6732C47.07 27.3386 46.576 27.2777 46.2276 27.5317L25.334 39.5417C25.334 39.5417 28.6685 48.5025 29.1767 50.0537C29.6866 51.6065 30.0951 51.643 30.0951 51.643L31.6214 42.5712L47.1887 28.7377C47.5371 28.4838 47.602 28.0077 47.3376 27.6732Z" fill="#CFD8DC"/>
</svg>
