<svg width="76" height="73" viewBox="0 0 76 73" fill="none" xmlns="http://www.w3.org/2000/svg">
<path d="M9.76398 67.4967C7.53638 67.4967 5.73047 65.7621 5.73047 63.6209V9.37771C5.73047 7.23804 7.53638 5.50342 9.76398 5.50342H66.2363C68.4639 5.50342 70.2698 7.23804 70.2698 9.37771V63.6209C70.2698 65.7621 68.4639 67.4967 66.2363 67.4967H9.76398Z" fill="white"/>
<path d="M9.76398 67.4967C7.53638 67.4967 5.73047 65.7621 5.73047 63.6209V9.37771C5.73047 7.23804 7.53638 5.50342 9.76398 5.50342H66.2363C68.4639 5.50342 70.2698 7.23804 70.2698 9.37771V63.6209C70.2698 65.7621 68.4639 67.4967 66.2363 67.4967H9.76398Z" stroke="black" stroke-width="5"/>
<path d="M46.9316 36.8516L59.3582 24.9517V48.7877L46.9316 36.8516ZM31.318 39.0079C31.7506 39.4219 31.9952 39.6568 31.9952 39.6568C35.3123 42.843 40.6877 42.843 44.0017 39.6583L44.6805 39.0078L56.9707 50.8144H19.0262L31.318 39.0079ZM29.0669 36.8516L16.6402 48.7877V24.9502C20.0687 28.2327 25.6588 33.5887 29.0669 36.8516ZM41.8007 37.5443C39.7017 39.562 36.2968 39.562 34.1961 37.5443L18.8929 22.8105H57.1055C51.9213 27.7991 41.8007 37.5443 41.8007 37.5443ZM13.4141 19.7117V53.9133H62.5844V19.7117H13.4141Z" fill="black"/>
</svg>
