<svg width="82" height="79" viewBox="0 0 82 79" fill="none" xmlns="http://www.w3.org/2000/svg">
<path d="M14.4 51.6667C7.36481 54.2432 3 57.8331 3 61.8043C3 69.6445 20.0132 76 41 76C61.987 76 79 69.6445 79 61.8043C79 57.8331 74.6351 54.2432 67.6 51.6667M41 27.3333H41.0422M66.3333 27.3333C66.3333 43.8139 47.3333 51.6667 41 63.8333C34.6667 51.6667 15.6667 43.8139 15.6667 27.3333C15.6667 13.8944 27.0088 3 41 3C54.9912 3 66.3333 13.8944 66.3333 27.3333ZM45.2222 27.3333C45.2222 29.5731 43.3319 31.3889 41 31.3889C38.6681 31.3889 36.7778 29.5731 36.7778 27.3333C36.7778 25.0935 38.6681 23.2778 41 23.2778C43.3319 23.2778 45.2222 25.0935 45.2222 27.3333Z" stroke="black" stroke-width="5" stroke-linecap="round" stroke-linejoin="round"/>
</svg>
