<svg width="76" height="73" viewBox="0 0 76 73" fill="none" xmlns="http://www.w3.org/2000/svg">
<path d="M44.334 6.0835C44.334 6.0835 51.3007 6.69183 60.1673 15.2085C69.034 23.7252 69.6673 30.4168 69.6673 30.4168" stroke="#010510" stroke-width="5" stroke-linecap="round"/>
<path d="M44.9883 16.8374C44.9883 16.8374 48.1233 17.6977 52.8255 22.2144C57.5276 26.731 58.4235 29.7421 58.4235 29.7421" stroke="#010510" stroke-width="5" stroke-linecap="round"/>
<path d="M31.7851 16.1699L33.8403 19.7071C35.695 22.8993 34.9505 27.0869 32.0292 29.8927C32.0292 29.8927 28.4863 33.2964 34.9103 39.467C41.3323 45.6355 44.878 42.2343 44.878 42.2343C47.7992 39.4284 52.1588 38.7133 55.4822 40.4948L59.1647 42.4688C64.1833 45.1589 64.7757 51.9187 60.3649 56.1557C57.7144 58.7016 54.4673 60.6826 50.8779 60.8131C44.8356 61.0333 34.574 59.5645 24.2804 49.6773C13.9869 39.79 12.4577 29.9335 12.6868 24.1297C12.8228 20.682 14.8852 17.5631 17.5358 15.0172C21.9468 10.7804 28.9844 11.3496 31.7851 16.1699Z" stroke="#010510" stroke-width="5" stroke-linecap="round"/>
</svg>
