<svg width="40" height="40" viewBox="0 0 40 40" fill="none" xmlns="http://www.w3.org/2000/svg">
<path d="M20.0007 3.33301C15.5804 3.33301 11.3411 5.08896 8.21554 8.21456C5.08993 11.3402 3.33398 15.5794 3.33398 19.9997C3.33398 24.4199 5.08993 28.6592 8.21554 31.7848C11.3411 34.9104 15.5804 36.6663 20.0007 36.6663C24.4209 36.6663 28.6602 34.9104 31.7858 31.7848C34.9114 28.6592 36.6673 24.4199 36.6673 19.9997C36.6673 15.5794 34.9114 11.3402 31.7858 8.21456C28.6602 5.08896 24.4209 3.33301 20.0007 3.33301Z" fill="#29B6F6"/>
<path d="M28.2923 12.5003L25.1707 28.4387C25.1707 28.4387 25.0365 29.167 24.1332 29.167C23.6532 29.167 23.4057 28.9387 23.4057 28.9387L16.644 23.3278L13.3357 21.6603L9.08982 20.5312C9.08982 20.5312 8.33398 20.3128 8.33398 19.6878C8.33398 19.167 9.11148 18.9187 9.11148 18.9187L26.8748 11.862C26.8748 11.862 27.4173 11.6662 27.8132 11.667C28.0565 11.667 28.334 11.7712 28.334 12.0837C28.334 12.292 28.2923 12.5003 28.2923 12.5003Z" fill="white"/>
<path d="M19.1673 25.4212L16.3123 28.2328C16.3123 28.2328 16.1882 28.3287 16.0223 28.3328C15.9648 28.3345 15.9032 28.3253 15.8398 28.297L16.6432 23.3262L19.1673 25.4212Z" fill="#B0BEC5"/>
<path d="M24.9148 15.1632C24.774 14.9799 24.514 14.9466 24.3306 15.0857L13.334 21.6666C13.334 21.6666 15.089 26.5766 15.3565 27.4266C15.6248 28.2774 15.8398 28.2974 15.8398 28.2974L16.6432 23.3266L24.8365 15.7466C25.0198 15.6074 25.054 15.3466 24.9148 15.1632Z" fill="#CFD8DC"/>
</svg>
