<svg width="40" height="40" viewBox="0 0 40 40" fill="none" xmlns="http://www.w3.org/2000/svg">
<path d="M20.0007 3.33301C15.5804 3.33301 11.3411 5.08896 8.21554 8.21456C5.08993 11.3402 3.33398 15.5794 3.33398 19.9997C3.33398 24.4199 5.08993 28.6592 8.21554 31.7848C11.3411 34.9104 15.5804 36.6663 20.0007 36.6663C24.4209 36.6663 28.6602 34.9104 31.7858 31.7848C34.9114 28.6592 36.6673 24.4199 36.6673 19.9997C36.6673 15.5794 34.9114 11.3402 31.7858 8.21456C28.6602 5.08896 24.4209 3.33301 20.0007 3.33301Z" fill="#1976D2"/>
<path d="M29.9475 15.0345C29.9858 14.9087 30.0042 14.792 29.9992 14.6878C29.9867 14.3862 29.7792 14.167 29.2908 14.167H27.1092C26.5583 14.167 26.3042 14.5003 26.1558 14.8345C26.1558 14.8345 24.7958 17.6337 23.2283 19.4795C22.72 20.0137 22.4617 20.0003 22.1867 20.0003C22.0392 20.0003 21.6667 19.822 21.6667 19.3328V15.012C21.6667 14.4337 21.5225 14.167 21.0567 14.167H17.1825C16.8433 14.167 16.6667 14.4337 16.6667 14.7012C16.6667 15.257 17.415 15.3903 17.5 16.9478V19.967C17.5 20.7003 17.3725 20.8337 17.0975 20.8337C16.3558 20.8337 14.8958 18.3337 13.9183 15.057C13.7067 14.412 13.495 14.167 12.9442 14.167H10.7417C10.1058 14.167 10 14.4787 10 14.812C10 15.4128 10.5 18.6612 13.2292 22.3962C15.2083 25.1045 17.8158 26.667 20.1242 26.667C21.5225 26.667 21.6658 26.3112 21.6658 25.7553V23.2787C21.6667 22.6112 21.8192 22.5003 22.2642 22.5003C22.5817 22.5003 23.2292 22.7087 24.4792 24.167C25.9208 25.8487 26.1825 26.667 27.0092 26.667H29.1908C29.6975 26.667 29.9883 26.4545 30 26.042C30.0025 25.937 29.9875 25.8195 29.9533 25.6887C29.7917 25.2087 29.05 24.0353 28.125 22.917C27.6125 22.2978 27.1067 21.6845 26.8742 21.3512C26.7183 21.1337 26.6592 20.9803 26.6667 20.8337C26.6742 20.6795 26.7542 20.5328 26.8742 20.3278C26.8525 20.3278 29.6725 16.3687 29.9475 15.0345Z" fill="white"/>
</svg>
